<svg xmlns="http://www.w3.org/2000/svg" xmlns:xlink="http://www.w3.org/1999/xlink" width="1080" zoomAndPan="magnify" viewBox="0 0 810 809.999993" height="1080" preserveAspectRatio="xMidYMid meet" version="1.0"><defs><clipPath id="e57213dfe9"><path d="M 80.578125 105 L 363 105 L 363 705 L 80.578125 705 Z M 80.578125 105 " clip-rule="nonzero"/></clipPath></defs><g clip-path="url(#e57213dfe9)"><path fill="#12d2ff" d="M 290.652344 386.570312 L 362.769531 428.285156 L 362.769531 142.351562 L 299.164062 105.59375 L 232.757812 143.847656 L 232.757812 220.921875 L 214.796875 231.300781 L 214.796875 154.230469 L 156.246094 188.089844 L 156.246094 269.558594 L 223.964844 308.5625 L 290.464844 270.121094 L 290.464844 198.097656 L 308.425781 187.714844 L 308.425781 280.5 L 232.757812 324.183594 L 232.757812 400.785156 L 214.796875 411.167969 L 214.796875 324.089844 L 148.667969 285.832031 L 80.578125 325.117188 L 80.578125 391.152344 L 156.246094 347.472656 L 156.246094 368.234375 L 80.578125 411.917969 L 80.578125 486.371094 L 148.667969 525.652344 L 204.882812 493.199219 L 151.570312 462.332031 L 151.570312 441.660156 L 308.425781 532.199219 L 308.425781 639.015625 L 290.464844 628.632812 L 290.464844 542.582031 L 222.839844 503.578125 L 156.246094 542.023438 L 156.246094 620.964844 L 214.796875 654.730469 L 214.796875 566.339844 L 232.757812 576.722656 L 232.757812 665.113281 L 300.753906 704.398438 L 362.769531 668.574219 L 362.769531 449.050781 L 290.652344 407.332031 Z M 290.652344 386.570312 " fill-opacity="1" fill-rule="evenodd"/></g><path fill="#252e4c" d="M 381.289062 164.613281 L 381.289062 666.609375 L 399.714844 677.367188 L 428.523438 693.921875 C 423.84375 710.195312 430.671875 728.246094 446.011719 737.039062 C 464.160156 747.515625 487.261719 741.34375 497.738281 723.195312 C 508.121094 705.144531 501.945312 681.949219 483.894531 671.472656 C 468.554688 662.679688 449.566406 665.765625 437.78125 677.925781 L 399.714844 655.945312 L 399.714844 153.949219 L 437.78125 131.96875 C 449.566406 144.222656 468.554688 147.308594 483.894531 138.421875 C 501.945312 127.949219 508.121094 104.84375 497.738281 86.699219 C 487.261719 68.648438 464.160156 62.472656 446.011719 72.855469 C 430.671875 81.742188 423.84375 99.699219 428.523438 115.976562 L 399.714844 132.625 L 381.289062 143.289062 Z M 457.238281 717.585938 C 449.941406 713.28125 447.417969 703.929688 451.71875 696.632812 C 455.925781 689.335938 465.28125 686.8125 472.578125 691.019531 C 479.964844 695.230469 482.398438 704.582031 478.1875 711.972656 C 473.980469 719.269531 464.625 721.792969 457.238281 717.585938 Z M 451.71875 113.355469 C 447.417969 105.96875 449.941406 96.613281 457.238281 92.40625 C 464.625 88.195312 473.980469 90.722656 478.1875 98.015625 C 482.398438 105.3125 479.964844 114.667969 472.578125 118.875 C 465.28125 123.175781 455.925781 120.652344 451.71875 113.355469 Z M 451.71875 113.355469 " fill-opacity="1" fill-rule="evenodd"/><path fill="#252e4c" d="M 465.28125 303.605469 L 419.636719 303.605469 L 419.636719 322.03125 L 472.949219 322.03125 L 491.46875 303.605469 L 514.105469 280.96875 L 613.15625 280.96875 L 655.339844 323.152344 C 646.644531 337.652344 648.511719 356.824219 661.046875 369.359375 C 675.824219 384.136719 699.863281 384.136719 714.640625 369.359375 C 729.421875 354.582031 729.421875 330.636719 714.640625 315.855469 C 702.109375 303.324219 682.933594 301.359375 668.4375 310.058594 L 639.253906 280.96875 L 620.828125 262.449219 L 506.4375 262.449219 L 488.007812 280.96875 Z M 677.042969 331.757812 C 683.027344 325.773438 692.660156 325.773438 698.648438 331.757812 C 704.632812 337.746094 704.632812 347.472656 698.648438 353.363281 C 692.660156 359.351562 683.027344 359.351562 677.042969 353.363281 C 671.054688 347.472656 671.054688 337.746094 677.042969 331.757812 Z M 677.042969 331.757812 " fill-opacity="1" fill-rule="evenodd"/><path fill="#12d2ff" d="M 419.636719 228.402344 L 444.140625 228.402344 L 462.570312 209.976562 L 484.363281 188.183594 L 513.824219 188.183594 C 518.035156 204.644531 532.90625 216.804688 550.582031 216.804688 C 571.441406 216.804688 588.464844 199.875 588.464844 178.921875 C 588.464844 158.066406 571.441406 141.136719 550.582031 141.136719 C 532.90625 141.136719 518.035156 153.296875 513.824219 169.664062 L 476.691406 169.664062 L 458.171875 188.183594 L 436.472656 209.976562 L 419.636719 209.976562 Z M 535.246094 178.921875 C 535.246094 170.503906 542.164062 163.679688 550.582031 163.679688 C 559 163.679688 565.921875 170.503906 565.921875 178.921875 C 565.921875 187.433594 559 194.261719 550.582031 194.261719 C 542.164062 194.261719 535.246094 187.433594 535.246094 178.921875 Z M 535.246094 178.921875 " fill-opacity="1" fill-rule="evenodd"/><path fill="#252e4c" d="M 446.855469 487.867188 L 419.636719 487.867188 L 419.636719 506.386719 L 465.28125 506.386719 L 488.007812 529.019531 L 506.4375 547.445312 L 620.828125 547.445312 L 639.253906 529.019531 L 668.4375 499.839844 C 682.933594 508.535156 702.109375 506.667969 714.640625 494.132812 C 729.421875 479.355469 729.421875 455.410156 714.640625 440.632812 C 699.863281 425.851562 675.824219 425.851562 661.046875 440.632812 C 648.511719 453.164062 646.644531 472.246094 655.339844 486.742188 L 613.15625 529.019531 L 514.105469 529.019531 L 491.46875 506.386719 L 472.949219 487.867188 Z M 698.648438 478.230469 C 692.660156 484.21875 683.027344 484.21875 677.042969 478.230469 C 671.054688 472.246094 671.054688 462.519531 677.042969 456.53125 C 683.027344 450.546875 692.660156 450.546875 698.648438 456.53125 C 704.632812 462.519531 704.632812 472.246094 698.648438 478.230469 Z M 698.648438 478.230469 " fill-opacity="1" fill-rule="evenodd"/><path fill="#12d2ff" d="M 419.636719 414.253906 L 547.03125 414.253906 C 551.144531 430.625 566.015625 442.78125 583.695312 442.78125 C 604.644531 442.78125 621.574219 425.851562 621.574219 404.996094 C 621.574219 384.042969 604.644531 367.113281 583.695312 367.113281 C 566.015625 367.113281 551.144531 379.273438 547.03125 395.734375 L 419.636719 395.734375 Z M 568.449219 404.996094 C 568.449219 396.484375 575.277344 389.65625 583.695312 389.65625 C 592.207031 389.65625 599.035156 396.484375 599.035156 404.996094 C 599.035156 413.414062 592.207031 420.242188 583.695312 420.242188 C 575.277344 420.242188 568.449219 413.414062 568.449219 404.996094 Z M 568.449219 404.996094 " fill-opacity="1" fill-rule="evenodd"/><path fill="#12d2ff" d="M 462.570312 600.011719 L 444.140625 581.492188 L 419.636719 581.492188 L 419.636719 600.011719 L 436.472656 600.011719 L 476.691406 640.230469 L 513.824219 640.230469 C 518.035156 656.695312 532.90625 668.855469 550.582031 668.855469 C 571.441406 668.855469 588.464844 651.925781 588.464844 630.972656 C 588.464844 610.113281 571.441406 593.183594 550.582031 593.183594 C 532.90625 593.183594 518.035156 605.34375 513.824219 621.710938 L 484.363281 621.710938 Z M 550.582031 646.3125 C 542.164062 646.3125 535.246094 639.484375 535.246094 630.972656 C 535.246094 622.554688 542.164062 615.726562 550.582031 615.726562 C 559 615.726562 565.921875 622.554688 565.921875 630.972656 C 565.921875 639.484375 559 646.3125 550.582031 646.3125 Z M 550.582031 646.3125 " fill-opacity="1" fill-rule="evenodd"/></svg>